{"title":"The Best of Youth, La Meglio GioventÃƒÂ¹ 2003 2DVD English Klam","uid":5952428,"size":4408553461,"categoryP":"video","categoryS":"movies","magnet":"?xt=urn:btih:e1a6c8929494ebffce03e6a40baa95622dc12a6e&amp;dn=The+Best+of+Youth%2C+La+Meglio+Giovent%C3%83%C2%B9+2003+2DVD+English+Klam&amp;tr=udp%3A%2F%2Ftracker.openbittorrent.com%3A80&amp;tr=udp%3A%2F%2Fopen.demonii.com%3A1337&amp;tr=udp%3A%2F%2Ftracker.coppersurfer.tk%3A6969&amp;tr=udp%3A%2F%2Fexodus.desync.com%3A6969","seeders":5,"leechers":1,"uploader":"Klambake","files":-1,"time":1289573641,"description":"With: Luigi Lo Cascio, Alessio Boni and Maya Sansa\n\nNicola and Matteo Carati are two brothers of Rome, who live the years from 1966 to 2000 and all the events which have signed this period. They begin their adventure, helping Giorgia, a young girl confined in an asylum. Then, after the flood of Florence, Nicola meets Giulia a talented piano player with a dangerous sympathy for the BR. Alessio, a rebel spirit entered in the police, will find the optimistic photographer Mirella. These four characters and many others will cross the years of terrorism and Tangentopoli.\n\nGeneral:\n\nComplete name                    : Klambake\\The Best of Youth\\01The Best of Youth one.avi\nFormat                           : AVI\nFormat/Info                      : Audio Video Interleave\nFile size                        : 700 MiB\nDuration                         : 55mn 49s\nOverall bit rate                 : 1 752 Kbps\nWriting application              : VirtualDubMod 1.5.10.2 (build 2540/release)\nWriting library                  : VirtualDubMod build 2540/release\n\nVideo:\n\nFormat                           : MPEG-4 Visual\nFormat profile                   : Advanced Simple@L5\nFormat settings, BVOP            : Yes\nFormat settings, QPel            : No\nFormat settings, GMC             : No warppoints\nFormat settings, Matrix          : Default (H.263)\nCodec ID                         : XVID\nCodec ID/Hint                    : XviD\nDuration                         : 55mn 49s\nBit rate                         : 1 359 Kbps\nWidth                            : 592 pixels\nHeight                           : 320 pixels\nDisplay aspect ratio             : 1.850\nFrame rate                       : 25.000 fps\nColor space                      : YUV\nChroma subsampling               : 4:2:0\nBit depth                        : 8 bits\nScan type                        : Progressive\nBits/(Pixel*Frame)               : 0.287\nStream size                      : 542 MiB (78%)\nWriting library                  : XviD 1.1.0 (UTC 2005-11-22)\n\nAudio:\n\nFormat                           : AC-3\nFormat/Info                      : Audio Coding 3\nMode extension                   : CM (complete main)\nCodec ID                         : 2000\nDuration                         : 55mn 49s\nBit rate mode                    : Constant\nBit rate                         : 384 Kbps\nChannel(s)                       : 6 channels\nChannel positions                : Front: L C R, Side: L R, LFE\nSampling rate                    : 48.0 KHz\nBit depth                        : 16 bits\nStream size                      : 153 MiB (22%)\nAlignment                        : Split accross interleaves\nInterleave, duration             : 40 ms (1.00 video frame)\nInterleave, preload duration     : 500 ms\n","torrent":{"xt":"urn:btih:e1a6c8929494ebffce03e6a40baa95622dc12a6e","amp;dn":"The+Best+of+Youth%2C+La+Meglio+Giovent%C3%83%C2%B9+2003+2DVD+English+Klam","amp;tr":["udp%3A%2F%2Ftracker.openbittorrent.com%3A80","udp%3A%2F%2Fopen.demonii.com%3A1337","udp%3A%2F%2Ftracker.coppersurfer.tk%3A6969","udp%3A%2F%2Fexodus.desync.com%3A6969"],"infoHash":"e1a6c8929494ebffce03e6a40baa95622dc12a6e","infoHashBuffer":{"type":"Buffer","data":[225,166,200,146,148,148,235,255,206,3,230,164,11,170,149,98,45,193,42,110]},"announce":[],"urlList":[]}}